<?xml version="1.0" encoding="UTF-8"?>
<svg version="1.1" xmlns="http://www.w3.org/2000/svg" width="25" height="25">
<path d="M0 0 C8.25 0 16.5 0 25 0 C25 8.25 25 16.5 25 25 C16.75 25 8.5 25 0 25 C0 16.75 0 8.5 0 0 Z " fill="#ECEFED" transform="translate(0,0)"/>
<path d="M0 0 C4.58984375 0.09765625 4.58984375 0.09765625 9.1796875 0.1953125 C9.1796875 4.8153125 9.1796875 9.4353125 9.1796875 14.1953125 C5.33172896 13.23332286 4.18329738 12.47077453 1.1796875 10.1953125 C-0.47614475 9.50217342 -2.14142229 8.83056826 -3.8203125 8.1953125 C-4.8203125 7.1953125 -4.8203125 7.1953125 -5.0078125 4.7578125 C-4.73185695 0.98641995 -3.7248664 0.25795474 0 0 Z " fill="#345F63" transform="translate(15.8203125,-0.1953125)"/>
<path d="M0 0 C0 3.63 0 7.26 0 11 C-5.61 11 -11.22 11 -17 11 C-13.81012658 5.6835443 -13.81012658 5.6835443 -9 4 C-7.33289654 2.50014391 -7.33289654 2.50014391 -6 1 C-4 0 -4 0 0 0 Z " fill="#F9F8FA" transform="translate(25,14)"/>
<path d="M0 0 C3.29714793 0.32971479 4.6226839 0.6226839 7 3 C7 5.4375 7 5.4375 6 8 C4.03533587 9.06775224 2.03144641 10.06553465 0 11 C-0.53625 11.721875 -1.0725 12.44375 -1.625 13.1875 C-2.07875 13.785625 -2.5325 14.38375 -3 15 C-4.32 15 -5.64 15 -7 15 C-6.38722388 12.03824877 -5.74627478 10.61941217 -4 8 C-3.67 6.989375 -3.34 5.97875 -3 4.9375 C-2 2 -2 2 0 0 Z " fill="#835769" transform="translate(11,10)"/>
<path d="M0 0 C2.4375 1.375 2.4375 1.375 3.5 3.75 C3.4375 6.375 3.4375 6.375 1.625 8.3125 C0.903125 8.993125 0.18125 9.67375 -0.5625 10.375 C-1.83034124 13.50850717 -1.83034124 13.50850717 -2.5625 16.375 C-3.8825 16.375 -5.2025 16.375 -6.5625 16.375 C-6.5625 11.755 -6.5625 7.135 -6.5625 2.375 C-5.9025 2.375 -5.2425 2.375 -4.5625 2.375 C-4.2325 4.025 -3.9025 5.675 -3.5625 7.375 C-2.2425 7.045 -0.9225 6.715 0.4375 6.375 C-0.61520463 5.21688612 -0.61520463 5.21688612 -2.5625 4.375 C-2.5625 3.385 -2.5625 2.395 -2.5625 1.375 C-3.2225 1.045 -3.8825 0.715 -4.5625 0.375 C-2.5625 -0.625 -2.5625 -0.625 0 0 Z " fill="#5E7652" transform="translate(6.5625,2.625)"/>
<path d="M0 0 C4.29 0 8.58 0 13 0 C11.68 1.65 10.36 3.3 9 5 C6.525 4.01 6.525 4.01 4 3 C4.66 4.32 5.32 5.64 6 7 C6.66 6.34 7.32 5.68 8 5 C7.67 6.65 7.34 8.3 7 10 C5.0625 10.5625 5.0625 10.5625 3 11 C2 10 2 10 1.9375 7.4375 C1.958125 6.633125 1.97875 5.82875 2 5 C1.34 5 0.68 5 0 5 C0 3.35 0 1.7 0 0 Z " fill="#F7F8F7" transform="translate(0,0)"/>
<path d="M0 0 C0.33 0 0.66 0 1 0 C1 1.98 1 3.96 1 6 C2.65 6 4.3 6 6 6 C5.21625 6.598125 4.4325 7.19625 3.625 7.8125 C0.85425677 9.91085249 0.85425677 9.91085249 -1 13 C-2.32 13 -3.64 13 -5 13 C-4.38722388 10.03824877 -3.74627478 8.61941217 -2 6 C-1.29835358 4.01200182 -0.62627128 2.01301483 0 0 Z " fill="#704359" transform="translate(9,12)"/>
<path d="M0 0 C2.31 0 4.62 0 7 0 C7 3.3 7 6.6 7 10 C6.01 10 5.02 10 4 10 C2.68 6.7 1.36 3.4 0 0 Z " fill="#EFF6F9" transform="translate(18,0)"/>
<path d="M0 0 C0.66 0 1.32 0 2 0 C1.39301257 4.12751449 -0.03810791 7.3321148 -2 11 C-3.32 11 -4.64 11 -6 11 C-6 9.02 -6 7.04 -6 5 C-5.38125 4.9175 -4.7625 4.835 -4.125 4.75 C-1.81562433 4.18741541 -1.81562433 4.18741541 -0.75 1.9375 C-0.5025 1.298125 -0.255 0.65875 0 0 Z " fill="#F9F8F6" transform="translate(6,14)"/>
<path d="M0 0 C0.66 0 1.32 0 2 0 C2.87890625 6.15234375 2.87890625 6.15234375 3 8 C2.67 8.33 2.34 8.66 2 9 C2.33 9.66 2.66 10.32 3 11 C3.66 11 4.32 11 5 11 C4.34 12.32 3.68 13.64 3 15 C2.01 14.67 1.02 14.34 0 14 C0 9.38 0 4.76 0 0 Z " fill="#829276" transform="translate(0,5)"/>
<path d="M0 0 C1.32 0.33 2.64 0.66 4 1 C4.33 2.65 4.66 4.3 5 6 C2.625 6.625 2.625 6.625 0 7 C-0.66 6.34 -1.32 5.68 -2 5 C-1.67 4.01 -1.34 3.02 -1 2 C-0.67 2.33 -0.34 2.66 0 3 C0 2.01 0 1.02 0 0 Z " fill="#85D2D3" transform="translate(14,1)"/>
<path d="M0 0 C0.99 0.33 1.98 0.66 3 1 C3 1.99 3 2.98 3 4 C3.99 4 4.98 4 6 4 C6 5.32 6 6.64 6 8 C3.23737447 7.6189482 2.15856106 7.16402868 0.1875 5.125 C-0.204375 4.42375 -0.59625 3.7225 -1 3 C-0.67 2.01 -0.34 1.02 0 0 Z " fill="#466F6E" transform="translate(19,6)"/>
<path d="M0 0 C1.98 0.495 1.98 0.495 4 1 C4 1.66 4 2.32 4 3 C4.66 3 5.32 3 6 3 C5.67 3.99 5.34 4.98 5 6 C3.02 6.33 1.04 6.66 -1 7 C-0.67 4.69 -0.34 2.38 0 0 Z " fill="#DB89B2" transform="translate(10,12)"/>
<path d="M0 0 C0.99 0 1.98 0 3 0 C3.66 0.99 4.32 1.98 5 3 C5.66 2.34 6.32 1.68 7 1 C6.67 2.65 6.34 4.3 6 6 C4.68 6.33 3.36 6.66 2 7 C1.34 4.69 0.68 2.38 0 0 Z " fill="#B8E0A6" transform="translate(1,4)"/>
<path d="M0 0 C0.33 0 0.66 0 1 0 C0.51171875 6.0546875 0.51171875 6.0546875 0 8 C-0.99 8.66 -1.98 9.32 -3 10 C-2.69201674 8.51988629 -2.378482 7.04092675 -2.0625 5.5625 C-1.88847656 4.73878906 -1.71445313 3.91507813 -1.53515625 3.06640625 C-1 1 -1 1 0 0 Z " fill="#81576E" transform="translate(9,12)"/>
</svg>
