<?xml version="1.0" encoding="UTF-8"?>
<!DOCTYPE svg PUBLIC "-//W3C//DTD SVG 1.1//EN" "http://www.w3.org/Graphics/SVG/1.1/DTD/svg11.dtd">
<svg xmlns="http://www.w3.org/2000/svg" version="1.1" width="1121px" height="650px" style="shape-rendering:geometricPrecision; text-rendering:geometricPrecision; image-rendering:optimizeQuality; fill-rule:evenodd; clip-rule:evenodd" xmlns:xlink="http://www.w3.org/1999/xlink">
<g><path style="opacity:0.962" fill="#fefefe" d="M 141.5,79.5 C 162.609,78.7666 175.442,88.7666 180,109.5C 182.429,127.114 178.595,143.114 168.5,157.5C 170.138,160.304 171.971,162.971 174,165.5C 177.966,168.464 181.633,171.797 185,175.5C 185.494,177.134 185.66,178.801 185.5,180.5C 181.313,180.395 177.313,181.228 173.5,183C 157.444,191.288 143.277,202.121 131,215.5C 129.167,218.5 127.333,221.5 125.5,224.5C 124.311,225.429 122.978,225.762 121.5,225.5C 121.338,223.473 121.505,221.473 122,219.5C 130.928,205.533 130.094,205.033 119.5,218C 117.251,218.863 115.418,218.363 114,216.5C 113.518,213.093 113.518,209.76 114,206.5C 112.98,207.891 112.147,209.391 111.5,211C 110.552,211.483 109.552,211.649 108.5,211.5C 108.509,209.692 108.009,208.025 107,206.5C 94.4707,222.507 78.9707,226.341 60.5,218C 51.9217,211.864 49.0883,203.697 52,193.5C 58.3214,175.844 70.1548,163.344 87.5,156C 92.3634,153.934 97.3634,152.268 102.5,151C 99.5706,150.223 96.7372,150.39 94,151.5C 93.3333,150.833 92.6667,150.167 92,149.5C 90.2105,122.911 100.377,102.078 122.5,87C 128.604,83.5833 134.937,81.0833 141.5,79.5 Z M 139.5,150.5 C 132.235,155.757 125.235,161.424 118.5,167.5C 123.032,160.471 129.032,154.971 136.5,151C 137.448,150.517 138.448,150.351 139.5,150.5 Z"/></g>
<g><path style="opacity:0.902" fill="#fefefe" d="M 355.5,118.5 C 362.185,117.852 365.185,120.852 364.5,127.5C 362.143,127.337 359.81,127.503 357.5,128C 376.679,129.166 391.512,137.666 402,153.5C 404.733,157.388 404.9,161.222 402.5,165C 396.199,162.237 389.533,160.237 382.5,159C 358.801,156.23 335.467,158.064 312.5,164.5C 308.201,164.238 307.534,162.571 310.5,159.5C 318.533,156.242 326.866,154.075 335.5,153C 329.15,152.537 322.983,153.371 317,155.5C 315.989,154.663 314.822,154.33 313.5,154.5C 314.169,147.337 318.169,143.837 325.5,144C 320.518,142.143 320.518,139.81 325.5,137C 332.767,134.389 340.1,133.389 347.5,134C 344.881,133.849 342.547,133.015 340.5,131.5C 342.878,128.924 345.878,127.924 349.5,128.5C 348.673,123.352 350.673,120.018 355.5,118.5 Z"/></g>
<g><path style="opacity:0.964" fill="#fefefe" d="M 339.5,160.5 C 353.874,160.131 368.207,160.631 382.5,162C 392.474,162.991 401.64,166.157 410,171.5C 410.635,172.966 411.469,174.3 412.5,175.5C 411.939,177.426 411.773,179.426 412,181.5C 404.41,188.264 395.576,192.764 385.5,195C 379.271,196.679 372.938,197.513 366.5,197.5C 371.98,213.711 375.314,230.378 376.5,247.5C 396.932,237.142 418.599,231.308 441.5,230C 486.628,227.029 529.294,236.363 569.5,258C 609.406,285.291 631.906,323.124 637,371.5C 657.865,343.641 684.698,323.808 717.5,312C 741.047,305.546 764.381,306.212 787.5,314C 810.09,324.09 826.09,340.59 835.5,363.5C 840.797,324.382 861.13,296.215 896.5,279C 905.725,274.608 915.392,272.942 925.5,274C 929.49,274.185 930.823,276.018 929.5,279.5C 914.901,294.339 904.068,311.672 897,331.5C 895.058,348.508 895.058,365.508 897,382.5C 900.552,393.275 903.218,404.275 905,415.5C 905.488,434.513 905.488,453.513 905,472.5C 912.183,490.359 925.35,497.526 944.5,494C 955.283,490.692 964.783,485.192 973,477.5C 974.34,474.798 975.673,472.131 977,469.5C 980.322,455.475 980.155,441.809 976.5,428.5C 974.77,413.224 971.77,397.391 967.5,381C 964.819,351.027 976.485,327.694 1002.5,311C 1015.08,303.697 1028.58,299.197 1043,297.5C 1055.14,297.829 1066.97,299.829 1078.5,303.5C 1068.48,312.358 1059.31,322.025 1051,332.5C 1036.53,352.147 1031.2,374.147 1035,398.5C 1038.85,414.392 1042.18,430.392 1045,446.5C 1049.11,472.927 1046.44,498.593 1037,523.5C 1021.95,553.205 998.118,571.705 965.5,579C 953.214,581.707 940.714,581.874 928,579.5C 887.749,573.963 856.082,554.297 833,520.5C 830.938,516.312 829.271,511.979 828,507.5C 802.257,550.147 764.424,574.313 714.5,580C 697.004,582.721 680.337,580.055 664.5,572C 640.158,559.992 621.325,542.159 608,518.5C 604.102,509.576 601.769,500.242 601,490.5C 600.448,481.127 600.448,471.793 601,462.5C 559.427,519.016 504.26,555.183 435.5,571C 399.935,578.758 365.269,575.925 331.5,562.5C 323.327,567.072 314.66,568.239 305.5,566C 281.987,559.48 263.153,546.314 249,526.5C 245.268,521.094 241.935,515.427 239,509.5C 231.531,475.072 217.864,443.405 198,414.5C 194.965,411.13 191.632,408.13 188,405.5C 183.99,448.884 168.99,487.884 143,522.5C 126.88,542.979 106.38,557.146 81.5,565C 72.9082,566.993 64.2415,567.993 55.5,568C 54.7069,566.915 54.0402,565.748 53.5,564.5C 71.4574,537.139 82.6241,507.139 87,474.5C 88.1025,437.451 90.1025,400.451 93,363.5C 94.5717,342.354 97.2383,321.354 101,300.5C 109.552,263.884 127.052,232.384 153.5,206C 165.674,194.91 179.674,186.91 195.5,182C 201.452,180.67 207.452,180.337 213.5,181C 215.211,182.133 215.711,183.633 215,185.5C 201.07,214.554 193.403,245.221 192,277.5C 191.833,285 191.667,292.5 191.5,300C 191.316,310.9 191.982,321.733 193.5,332.5C 204.461,328.235 215.461,324.068 226.5,320C 252.467,304.738 275.301,285.571 295,262.5C 312.505,242.322 327.672,220.488 340.5,197C 326.538,195.18 313.538,190.68 301.5,183.5C 299.806,178.889 300.472,174.723 303.5,171C 306.554,168.806 309.888,167.139 313.5,166C 322.188,163.613 330.855,161.78 339.5,160.5 Z M 100.5,508.5 C 108.789,456.047 111.956,404.047 110,352.5C 113.191,301.827 130.525,256.827 162,217.5C 169.496,209.498 177.996,202.831 187.5,197.5C 156.171,224.351 135.004,258.351 124,299.5C 113.166,339.345 109.666,379.845 113.5,421C 113.055,450.608 108.722,479.774 100.5,508.5 Z M 331.5,246.5 C 327.52,253.783 323.02,260.783 318,267.5C 308.235,278.596 299.235,290.263 291,302.5C 283.796,311.371 275.629,319.205 266.5,326C 247.133,339.244 226.133,349.244 203.5,356C 197.594,357.873 191.594,358.873 185.5,359C 215.264,349.284 242.931,335.617 268.5,318C 276.303,311.198 283.803,304.031 291,296.5C 303.606,279.066 317.106,262.399 331.5,246.5 Z M 398.5,514.5 C 419.972,466.033 427.806,415.367 422,362.5C 419.923,341.114 414.923,320.448 407,300.5C 404.38,294.086 400.88,288.253 396.5,283C 432.557,276.311 467.891,278.978 502.5,291C 531.385,301.219 550.885,320.719 561,349.5C 566.167,374.671 562.167,398.337 549,420.5C 525.139,460.674 490.972,487.841 446.5,502C 430.81,507.422 414.81,511.589 398.5,514.5 Z M 377.5,305.5 C 383.48,318.753 386.98,332.753 388,347.5C 391.291,391.425 384.124,433.425 366.5,473.5C 381.468,427.441 386.634,380.441 382,332.5C 380.691,323.458 379.191,314.458 377.5,305.5 Z M 866.5,307.5 C 867.239,307.369 867.906,307.536 868.5,308C 853.539,326.1 846.039,346.933 846,370.5C 852.098,401.685 853.098,433.018 849,464.5C 848.667,445.5 848.333,426.5 848,407.5C 846.876,395.757 845.21,384.091 843,372.5C 842.637,347.746 850.471,326.079 866.5,307.5 Z M 362.5,309.5 C 364.765,318.383 365.765,327.55 365.5,337C 365.389,347.558 364.555,358.058 363,368.5C 355.619,404.308 347.619,439.975 339,475.5C 336.734,484.299 334.067,492.965 331,501.5C 337.641,465.295 332.975,430.629 317,397.5C 311.977,388.805 305.81,380.972 298.5,374C 328.073,360.594 349.406,339.094 362.5,309.5 Z M 704.5,333.5 C 706.379,333.393 706.712,333.893 705.5,335C 681.951,348.883 663.451,367.716 650,391.5C 635.135,418.762 625.468,447.762 621,478.5C 621.958,428.436 640.458,386.27 676.5,352C 685.727,345.561 695.06,339.395 704.5,333.5 Z M 735.5,376.5 C 761.31,379.142 775.81,393.475 779,419.5C 781.808,454.045 769.308,481.545 741.5,502C 708.616,519.812 686.116,510.979 674,475.5C 672.67,468.866 672.003,462.2 672,455.5C 679.618,426.736 694.452,402.57 716.5,383C 722.491,379.43 728.824,377.263 735.5,376.5 Z M 259.5,377.5 C 280.095,386.928 295.262,401.928 305,422.5C 317.325,449.317 318.659,476.651 309,504.5C 308.034,510.13 307.367,515.796 307,521.5C 305.785,507.983 306.785,494.649 310,481.5C 312.631,437.1 295.798,402.434 259.5,377.5 Z M 981.5,397.5 C 982.117,397.611 982.617,397.944 983,398.5C 986.116,411.981 988.116,425.647 989,439.5C 992.154,460.218 987.487,478.885 975,495.5C 973.622,497.213 971.955,498.547 970,499.5C 974.527,489.423 978.86,479.09 983,468.5C 984.819,461.951 985.985,455.285 986.5,448.5C 985.319,431.438 983.652,414.438 981.5,397.5 Z M 823.5,474.5 C 824.586,474.62 825.253,475.287 825.5,476.5C 818.711,499.794 806.044,519.294 787.5,535C 777.097,543.289 765.931,550.456 754,556.5C 753.312,555.668 753.479,555.002 754.5,554.5C 771.585,544.259 787.085,531.925 801,517.5C 811.133,504.568 818.633,490.234 823.5,474.5 Z M 564.5,487.5 C 563.277,490.274 561.777,492.941 560,495.5C 530.04,524.576 494.873,545.076 454.5,557C 440.786,561.31 426.786,564.143 412.5,565.5C 459.164,554.5 502.164,535.333 541.5,508C 549.633,501.701 557.3,494.868 564.5,487.5 Z M 840.5,501.5 C 847.972,530.645 865.972,550.312 894.5,560.5C 895.521,561.002 895.688,561.668 895,562.5C 864.657,552.993 846.49,532.66 840.5,501.5 Z M 645.5,544.5 C 635.342,536.829 627.508,527.163 622,515.5C 621.333,514.5 621.333,513.5 622,512.5C 628.133,524.44 635.966,535.107 645.5,544.5 Z"/></g>
</svg>
