<?xml version="1.0" encoding="UTF-8"?>
<svg version="1.1" xmlns="http://www.w3.org/2000/svg" width="650" height="650">
<path d="M0 0 C214.5 0 429 0 650 0 C650 214.5 650 429 650 650 C435.5 650 221 650 0 650 C0 435.5 0 221 0 0 Z " fill="#7C8B66" transform="translate(0,0)"/>
<path d="M0 0 C2.83530741 2.48089399 3.01624818 4.07079562 3.875 7.8125 C3.73999042 10.83896466 3.23796226 11.77053639 1.03125 13.8984375 C-11.47307373 22.3204673 -27.89348094 27 -43 27 C-42.75765625 27.52464844 -42.5153125 28.04929688 -42.265625 28.58984375 C-28.75912499 59.810638 -29.93865533 98.60529712 -42 130 C-49.01228625 147.23108549 -58.11722038 161.5609691 -71 175 C-71.75667969 175.81984375 -72.51335937 176.6396875 -73.29296875 177.484375 C-83.88416737 188.61118073 -96.80292689 196.34791559 -110 204 C-109.30777344 204.60521484 -109.30777344 204.60521484 -108.6015625 205.22265625 C-90.53657171 222.03809234 -80.60544471 247.98703813 -77 272 C-76.81566406 273.21429688 -76.63132812 274.42859375 -76.44140625 275.6796875 C-73.00020609 300.20627203 -75.57831855 323.2807226 -82.66235352 346.94384766 C-86.07063293 358.6442382 -85.55945774 367.63039679 -81 379 C-79.72490332 381.22261327 -78.40410904 383.27728751 -76.85546875 385.31640625 C-76 387 -76 387 -76.2265625 389.11328125 C-77.69388168 392.69265077 -81.2302753 393.64329831 -84.5625 395.1875 C-100.0718666 398.85335029 -115.94481442 392.71218564 -129.08203125 384.640625 C-152.40346564 369.41457016 -168.09654027 346.94849647 -174.8125 320.0625 C-181.90540995 291.81429465 -194.43878992 256.79319607 -217 237 C-219.65586193 235.70618475 -219.65586193 235.70618475 -222 235 C-222.01417969 235.8765625 -222.02835938 236.753125 -222.04296875 237.65625 C-223.8898069 286.77216193 -247.19702669 336.00807969 -282.75 369.625 C-301.95148244 386.36942071 -327.13702196 398.01423443 -353 397 C-353.67578125 395.24609375 -353.67578125 395.24609375 -354 393 C-352.91796875 391.16015625 -352.91796875 391.16015625 -351.1875 389.0625 C-330.41287208 360.57982561 -321.38771884 319.74684323 -320.32421875 285.1484375 C-320.27461958 283.7445544 -320.22404334 282.34070554 -320.1725769 280.93688965 C-320.06370689 277.96042815 -319.95748245 274.98389244 -319.853302 272.00726318 C-318.9532556 246.585529 -317.65554298 221.22733449 -315.5625 195.875 C-315.46512543 194.66430847 -315.36775085 193.45361694 -315.26742554 192.20623779 C-314.18871265 178.94012298 -312.80053643 165.74371479 -311.00390625 152.5546875 C-310.84515518 151.38582001 -310.68640411 150.21695251 -310.52284241 149.01266479 C-304.08914296 103.53991882 -283.4312842 58.65455685 -247.1171875 29.3203125 C-241.96839767 25.48775465 -236.58068768 22.17420066 -231 19 C-230.29359375 18.59007812 -229.5871875 18.18015625 -228.859375 17.7578125 C-218.92232725 12.37176561 -207.27799687 9.43610016 -196 10 C-195.01 10.99 -195.01 10.99 -194 12 C-194.35530854 16.47365748 -196.3959453 20.35397617 -198.25 24.375 C-211.90463841 54.9565009 -217.25518882 89.52677616 -217.09765625 122.86328125 C-217.0962413 124.02127731 -217.09482635 125.17927338 -217.09336853 126.37236023 C-217.08783497 130.01910138 -217.07529552 133.66577785 -217.0625 137.3125 C-217.05747639 139.80663973 -217.05291501 142.30078043 -217.04882812 144.79492188 C-217.03788743 150.86330279 -217.02121718 156.93164677 -217 163 C-213.13780566 161.55395943 -209.27590829 160.10712738 -205.4140625 158.66015625 C-204.32488525 158.25236938 -203.23570801 157.84458252 -202.11352539 157.42443848 C-184.72329124 150.90722549 -169.61313086 143.61043274 -155 132 C-154.12085938 131.31421875 -153.24171875 130.6284375 -152.3359375 129.921875 C-144.14506014 123.39816737 -136.5647917 116.22872517 -129 109 C-128.12859375 108.17113281 -127.2571875 107.34226562 -126.359375 106.48828125 C-121.57802091 101.83231232 -117.33966131 96.87770164 -113.171875 91.66796875 C-111.24609468 89.30230695 -109.254208 87.05428037 -107.1875 84.8125 C-91.6426922 67.47524915 -79.4693778 47.16141748 -68 27 C-68.76441406 26.84144531 -69.52882813 26.68289062 -70.31640625 26.51953125 C-83.06920231 23.74184643 -96.04767512 20.38091459 -107 13 C-108.42662219 10.14675563 -108.31033868 8.16545451 -108 5 C-104.98670946 -0.88309105 -98.90512049 -2.85335872 -93 -5 C-66.50764801 -13.00611934 -24.4535905 -15.34342934 0 0 Z " fill="#FEFEFE" transform="translate(502,171)"/>
<path d="M0 0 C3.96717677 3.11293068 7.10476557 6.67018941 10.140625 10.6796875 C10.64722656 11.33066406 11.15382813 11.98164062 11.67578125 12.65234375 C18.35032439 22.12902745 18.06754038 34.46606539 16.31738281 45.47460938 C14.55910491 55.51517754 11.84581265 64.77867021 5.140625 72.6796875 C6.5553247 77.28373979 9.16337038 80.06356447 12.578125 83.3046875 C13.06861328 83.78164062 13.55910156 84.25859375 14.06445312 84.75 C16.01828273 86.64845792 17.97595032 88.53258272 20.0078125 90.34765625 C20.38164062 90.78722656 20.75546875 91.22679687 21.140625 91.6796875 C20.828125 94.3671875 20.828125 94.3671875 20.140625 96.6796875 C18.965 96.8446875 17.789375 97.0096875 16.578125 97.1796875 C-3.03579045 101.58973453 -25.44049987 119.94687983 -36.16796875 136.7265625 C-37.10828129 138.3534008 -37.99138185 140.01314064 -38.859375 141.6796875 C-39.849375 141.3496875 -40.839375 141.0196875 -41.859375 140.6796875 C-41.43684227 135.38606994 -39.44157395 132.19185343 -36.171875 128.1796875 C-35.72215332 127.61161377 -35.27243164 127.04354004 -34.80908203 126.45825195 C-31.72079794 122.6053819 -28.49519674 119.02847068 -24.859375 115.6796875 C-32.735383 119.6176915 -38.84388955 127.65468636 -43.859375 134.6796875 C-45.509375 134.3496875 -47.159375 134.0196875 -48.859375 133.6796875 C-49.93449378 129.28961913 -50.1851691 126.63346507 -47.921875 122.7421875 C-47.24125 121.7315625 -46.560625 120.7209375 -45.859375 119.6796875 C-46.6225 120.4428125 -47.385625 121.2059375 -48.171875 121.9921875 C-50.06770833 123.88802083 -51.96354167 125.78385417 -53.859375 127.6796875 C-54.189375 127.3496875 -54.519375 127.0196875 -54.859375 126.6796875 C-54.16170058 120.28433866 -54.16170058 120.28433866 -52.859375 117.6796875 C-54.01953125 119.00033203 -54.01953125 119.00033203 -55.203125 120.34765625 C-63.22869606 129.35236507 -70.13575273 136.85024466 -82.8359375 137.93359375 C-91.16090103 138.23578798 -98.53764378 137.52747422 -104.9609375 131.80859375 C-110.0001353 126.323541 -112.37945306 121.70069147 -112.16796875 114.19921875 C-110.70426858 102.2487553 -103.06116884 91.17257677 -93.859375 83.6796875 C-84.29082473 76.74737047 -73.55182103 70.18928567 -61.859375 67.6796875 C-63.7775 67.4940625 -63.7775 67.4940625 -65.734375 67.3046875 C-69.609375 66.9296875 -69.609375 66.9296875 -71.859375 64.6796875 C-73.69731577 48.15959199 -68.08340578 32.37866405 -57.921875 19.3671875 C-56.58584103 17.78915492 -55.23271211 16.22536495 -53.859375 14.6796875 C-53.30507812 14.04289062 -52.75078125 13.40609375 -52.1796875 12.75 C-39.8287223 -0.54649364 -17.08512662 -10.28594358 0 0 Z " fill="#FEFEFE" transform="translate(256.859375,84.3203125)"/>
<path d="M0 0 C6.37039403 5.14564538 12.10654837 11.20993793 15 19 C15.3125 22.5625 15.3125 22.5625 15 25 C12.67238025 25.81388931 11.44728543 26.16623955 9.09765625 25.29296875 C8.42605469 24.92816406 7.75445312 24.56335938 7.0625 24.1875 C-3.92306174 18.97031957 -16.77574751 19.63377581 -28.6875 19.6875 C-29.4827005 19.68865814 -30.277901 19.68981628 -31.09719849 19.69100952 C-42.66883395 19.72436389 -53.70972755 20.28446318 -65 23 C-66.31585901 23.29154348 -67.63227189 23.58059803 -68.94921875 23.8671875 C-71.9764866 24.54277331 -74.99042802 25.25026564 -78 26 C-78.33 24.68 -78.66 23.36 -79 22 C-68.81826391 17.44879995 -58.97822564 15.51551263 -48 14 C-54.75432395 13.76483979 -60.97165682 14.15893753 -67.58984375 15.5625 C-70 16 -70 16 -74 16 C-74.33203914 13.01164773 -74.25040627 11.41734379 -72.6875 8.8125 C-68.49133261 5.98252664 -63.94742231 5.66197904 -59 5 C-58.24976563 4.88785156 -57.49953125 4.77570313 -56.7265625 4.66015625 C-55.15311407 4.42574454 -53.57685911 4.21024788 -52 4 C-56.62 4 -61.24 4 -66 4 C-65.67 2.68 -65.34 1.36 -65 0 C-59.91121167 -3.053273 -55.65998804 -4.13174412 -49.796875 -4.09765625 C-48.8171875 -4.09443359 -47.8375 -4.09121094 -46.828125 -4.08789062 C-45.81234375 -4.07951172 -44.7965625 -4.07113281 -43.75 -4.0625 C-42.203125 -4.05573242 -42.203125 -4.05573242 -40.625 -4.04882812 C-38.08327427 -4.03706088 -35.54166681 -4.02062011 -33 -4 C-33 -4.66 -33 -5.32 -33 -6 C-37.62 -6 -42.24 -6 -47 -6 C-47 -6.99 -47 -7.98 -47 -9 C-30.82126846 -12.73587097 -13.82462917 -8.80349743 0 0 Z " fill="#FDFDFD" transform="translate(482,139)"/>
<path d="M0 0 C0.99 0.495 0.99 0.495 2 1 C1.21238281 1.51046875 0.42476563 2.0209375 -0.38671875 2.546875 C-43.1146077 31.06584466 -63.16226165 81.20188268 -73.1875 129.875 C-74.63381972 137.2527064 -75.72514893 144.66989988 -76.6875 152.125 C-76.80697998 153.0413623 -76.92645996 153.95772461 -77.04956055 154.90185547 C-78.77386447 169.18823167 -79.06978313 183.38821919 -78.95703125 197.76171875 C-78.94677416 199.21866849 -78.93653572 200.67561836 -78.92631531 202.13256836 C-78.88168973 208.1452815 -78.8350916 214.15782864 -78.75317383 220.17016602 C-78.27115445 256.78929636 -80.69054837 297.18599682 -96 331 C-96.66 331.66 -97.32 332.32 -98 333 C-97.50296167 328.77217996 -96.73016994 324.70940134 -95.73046875 320.5703125 C-91.55142673 303.2464324 -88.95072733 285.94377228 -87.22003174 268.23406982 C-87.00094902 266.00963577 -86.7722467 263.78634143 -86.54248047 261.56298828 C-83.97554017 236.2665992 -83.72390408 211.02922087 -84.00061703 185.62975597 C-84.21531001 165.7700314 -83.97057542 146.1294983 -79.8125 126.625 C-79.59674316 125.5930249 -79.38098633 124.5610498 -79.15869141 123.49780273 C-70.12059282 81.64968899 -51.00809646 32.35528003 -14 7 C-9.5349675 4.2747392 -4.90409357 1.83305032 0 0 Z " fill="#81906C" transform="translate(286,195)"/>
<path d="M0 0 C0 3.84612567 -1.1845248 4.90511805 -3.5 7.9375 C-6.41056829 11.82165593 -9.17470288 15.73838685 -11.8125 19.8125 C-16.06409291 26.25229044 -20.8044757 32.23291848 -25.61523438 38.25634766 C-27.8134058 41.02421443 -29.97147011 43.82234008 -32.125 46.625 C-32.74266235 47.42623291 -32.74266235 47.42623291 -33.37280273 48.24365234 C-35.35847781 50.82750761 -37.31377811 53.42877533 -39.23828125 56.05859375 C-62.52760428 87.86940976 -97.59010089 107.68165751 -135.25 118 C-135.99983154 118.20810303 -136.74966309 118.41620605 -137.5222168 118.63061523 C-142.78899387 119.97546226 -147.56702624 120.17179364 -153 120 C-150.43539079 117.43539079 -148.10621886 116.81708302 -144.68359375 115.6015625 C-143.3604197 115.12424805 -142.03751432 114.64618833 -140.71484375 114.16748047 C-140.0172998 113.91657654 -139.31975586 113.66567261 -138.60107422 113.40716553 C-108.0566351 102.36487859 -79.83184806 88.4467492 -56 66 C-55.35933594 65.42378906 -54.71867187 64.84757812 -54.05859375 64.25390625 C-48.75350215 59.28107508 -44.50069332 53.57220366 -40.14282227 47.78125 C-35.71362538 41.89693712 -31.12805859 36.16263146 -26.45874023 30.46777344 C-23.7028876 27.10404306 -20.99654836 23.72043069 -18.375 20.25 C-12.83410825 13.04267464 -6.46699554 6.3761244 0 0 Z " fill="#808F6B" transform="translate(430,240)"/>
<path d="M0 0 C17.10916679 2.4018638 33.76907933 17.03627916 44 30 C61.74149099 53.81344513 68.87206833 82.95457957 64.69921875 112.3125 C64.0609394 115.67862125 63.1836481 118.70721888 62.0625 121.9375 C58.70932535 131.90911299 58.10493464 142.58840962 57 153 C56.67 153 56.34 153 56 153 C53.93942435 140.26798787 54.57886314 127.95133621 57 115.3125 C62.2530961 87.6263996 56.26753461 60.81916692 40.84130859 37.22802734 C38.39205661 33.68137644 35.73798557 30.32610883 33 27 C32.38898438 26.22527344 31.77796875 25.45054687 31.1484375 24.65234375 C22.7664908 14.54050592 11.76836454 6.6920457 0 1 C0 0.67 0 0.34 0 0 Z " fill="#81906C" transform="translate(344,374)"/>
<path d="M0 0 C1.12468689 -0.00855011 1.12468689 -0.00855011 2.27209473 -0.01727295 C3.85195536 -0.02665785 5.431835 -0.03323077 7.01171875 -0.03710938 C9.372765 -0.04673844 11.73290999 -0.07779186 14.09375 -0.109375 C26.32487402 -0.19578011 38.9501266 0.2045425 49.90625 6.203125 C49.90625 7.193125 49.90625 8.183125 49.90625 9.203125 C49.30264648 9.08718994 48.69904297 8.97125488 48.07714844 8.85180664 C32.09917537 5.67316435 32.09917537 5.67316435 15.90625 4.203125 C14.87661133 4.16445312 14.87661133 4.16445312 13.82617188 4.125 C1.10317029 3.69480553 -11.04851862 4.88314914 -23.61083984 6.83935547 C-27.42856474 7.39868783 -31.25636698 7.80266862 -35.09375 8.203125 C-34.76375 7.213125 -34.43375 6.223125 -34.09375 5.203125 C-31.21270054 4.33371361 -28.47150663 3.66012354 -25.53125 3.078125 C-24.35079102 2.82482422 -24.35079102 2.82482422 -23.14648438 2.56640625 C-15.43614302 0.95187475 -7.88038319 0.04812065 0 0 Z " fill="#82906D" transform="translate(443.09375,157.796875)"/>
<path d="M0 0 C-1.34191406 0.72703125 -1.34191406 0.72703125 -2.7109375 1.46875 C-15.91638787 8.73953718 -29.18280118 17.74474983 -37 31 C-37.33 30.34 -37.66 29.68 -38 29 C-30.95458909 18.37596768 -15.26169268 -5.08723089 0 0 Z " fill="#81906D" transform="translate(242,148)"/>
<path d="M0 0 C2 1.75 2 1.75 3 4 C2.67 5.32 2.34 6.64 2 8 C-2.29 8 -6.58 8 -11 8 C-11.33 6.68 -11.66 5.36 -12 4 C-8.05897111 0.17839623 -5.48087566 -0.81198158 0 0 Z " fill="#F9FAF8" transform="translate(455,120)"/>
<path d="M0 0 C0.66 0.33 1.32 0.66 2 1 C-0.96740437 6.03168567 -4.69612492 9.74367352 -8.87109375 13.80859375 C-11.36627951 16.37703267 -13.1870444 18.9258579 -15 22 C-15.33 21.34 -15.66 20.68 -16 20 C-11.16101768 12.7031219 -6.50075454 5.94749883 0 0 Z " fill="#8C9978" transform="translate(220,157)"/>
<path d="M0 0 C0.33 0.66 0.66 1.32 1 2 C0.48050781 2.43570313 -0.03898437 2.87140625 -0.57421875 3.3203125 C-3.88366177 6.1464912 -7.02464558 8.85591013 -9.6875 12.3125 C-12.05766185 15.06701242 -13.55425866 16.01550247 -17 17 C-13.8749029 9.68594296 -6.73006055 3.96901007 0 0 Z " fill="#869472" transform="translate(233,198)"/>
<path d="M0 0 C0.33 0.66 0.66 1.32 1 2 C1.66 2.33 2.32 2.66 3 3 C1.02 8.28 -0.96 13.56 -3 19 C-4.13817003 14.4473199 -3.33208488 11.59699288 -2.0625 7.25 C-1.86720703 6.55261719 -1.67191406 5.85523438 -1.47070312 5.13671875 C-0.9891754 3.42201027 -0.49574843 1.71065123 0 0 Z " fill="#93A081" transform="translate(192,509)"/>
<path d="M0 0 C0 4.34669833 -2.21518292 6.78552543 -5 10 C-7.125 11.3125 -7.125 11.3125 -9 12 C-9.99 12.66 -10.98 13.32 -12 14 C-10.41332422 10.09714233 -7.86649519 7.66479018 -4.875 4.75 C-3.96492188 3.85796875 -3.05484375 2.9659375 -2.1171875 2.046875 C-1.41851562 1.37140625 -0.71984375 0.6959375 0 0 Z " fill="#8E9B7C" transform="translate(430,240)"/>
<path d="M0 0 C4.95 0 9.9 0 15 0 C11.52630934 1.73684533 9.92380063 2.30084112 6.25 2.625 C5.05117188 2.73714844 5.05117188 2.73714844 3.828125 2.8515625 C3.22484375 2.90054688 2.6215625 2.94953125 2 3 C2 2.34 2 1.68 2 1 C1.34 0.67 0.68 0.34 0 0 Z " fill="#8A9776" transform="translate(423,152)"/>
<path d="M0 0 C0.66 0.33 1.32 0.66 2 1 C-2.95 3.97 -2.95 3.97 -8 7 C-7.67 5.68 -7.34 4.36 -7 3 C-3.5625 1.1875 -3.5625 1.1875 0 0 Z " fill="#8F9C7C" transform="translate(286,195)"/>
<path d="M0 0 C-4.95 2.475 -4.95 2.475 -10 5 C-9.67 3.68 -9.34 2.36 -9 1 C-5.3931275 -0.64661571 -3.8148779 -1.27162597 0 0 Z " fill="#8A9776" transform="translate(242,148)"/>
<path d="M0 0 C3.55780196 0.60990891 6.6828589 1.5783681 10 3 C9.67 3.99 9.34 4.98 9 6 C6.03 4.35 3.06 2.7 0 1 C0 0.67 0 0.34 0 0 Z " fill="#8B9878" transform="translate(344,374)"/>
</svg>
