<?xml version="1.0" encoding="UTF-8"?>
<!DOCTYPE svg PUBLIC "-//W3C//DTD SVG 1.1//EN" "http://www.w3.org/Graphics/SVG/1.1/DTD/svg11.dtd">
<svg xmlns="http://www.w3.org/2000/svg" version="1.1" width="650px" height="650px" style="shape-rendering:geometricPrecision; text-rendering:geometricPrecision; image-rendering:optimizeQuality; fill-rule:evenodd; clip-rule:evenodd" xmlns:xlink="http://www.w3.org/1999/xlink">
<g><path style="opacity:0.962" fill="#fefefe" d="M 234.5,79.5 C 255.609,78.7666 268.442,88.7666 273,109.5C 275.429,127.114 271.595,143.114 261.5,157.5C 263.138,160.304 264.971,162.971 267,165.5C 270.966,168.464 274.633,171.797 278,175.5C 278.494,177.134 278.66,178.801 278.5,180.5C 274.313,180.395 270.313,181.228 266.5,183C 250.444,191.288 236.277,202.121 224,215.5C 222.167,218.5 220.333,221.5 218.5,224.5C 217.311,225.429 215.978,225.762 214.5,225.5C 214.338,223.473 214.505,221.473 215,219.5C 223.928,205.533 223.094,205.033 212.5,218C 210.251,218.863 208.418,218.363 207,216.5C 206.518,213.093 206.518,209.76 207,206.5C 205.98,207.891 205.147,209.391 204.5,211C 203.552,211.483 202.552,211.649 201.5,211.5C 201.509,209.692 201.009,208.025 200,206.5C 187.471,222.507 171.971,226.341 153.5,218C 144.922,211.864 142.088,203.697 145,193.5C 151.321,175.844 163.155,163.344 180.5,156C 185.363,153.934 190.363,152.268 195.5,151C 192.571,150.223 189.737,150.39 187,151.5C 186.333,150.833 185.667,150.167 185,149.5C 183.211,122.911 193.377,102.078 215.5,87C 221.604,83.5833 227.937,81.0833 234.5,79.5 Z M 232.5,150.5 C 225.235,155.757 218.235,161.424 211.5,167.5C 216.032,160.471 222.032,154.971 229.5,151C 230.448,150.517 231.448,150.351 232.5,150.5 Z"/></g>
<g><path style="opacity:0.902" fill="#fefefe" d="M 448.5,118.5 C 455.185,117.852 458.185,120.852 457.5,127.5C 455.143,127.337 452.81,127.503 450.5,128C 469.679,129.166 484.512,137.666 495,153.5C 497.733,157.388 497.9,161.222 495.5,165C 489.199,162.237 482.533,160.237 475.5,159C 451.801,156.23 428.467,158.064 405.5,164.5C 401.201,164.238 400.534,162.571 403.5,159.5C 411.533,156.242 419.866,154.075 428.5,153C 422.15,152.537 415.983,153.371 410,155.5C 408.989,154.663 407.822,154.33 406.5,154.5C 407.169,147.337 411.169,143.837 418.5,144C 413.518,142.143 413.518,139.81 418.5,137C 425.767,134.389 433.1,133.389 440.5,134C 437.881,133.849 435.547,133.015 433.5,131.5C 435.878,128.924 438.878,127.924 442.5,128.5C 441.673,123.352 443.673,120.018 448.5,118.5 Z"/></g>
<g><path style="opacity:0.965" fill="#fefefe" d="M 432.5,160.5 C 446.874,160.131 461.207,160.631 475.5,162C 485.474,162.991 494.64,166.157 503,171.5C 503.635,172.966 504.469,174.3 505.5,175.5C 504.939,177.426 504.773,179.426 505,181.5C 497.41,188.264 488.576,192.764 478.5,195C 472.271,196.679 465.938,197.513 459.5,197.5C 474.769,241.624 470.936,283.957 448,324.5C 433.865,346.298 415.032,362.798 391.5,374C 405.242,387.646 414.742,403.813 420,422.5C 426.068,443.432 428.068,464.765 426,486.5C 422.721,501.496 419.554,516.496 416.5,531.5C 416.611,541.336 419.777,550.003 426,557.5C 425.851,561.016 424.017,563.516 420.5,565C 411.87,568.018 403.203,568.018 394.5,565C 366.179,554.924 345.346,536.424 332,509.5C 324.531,475.072 310.864,443.405 291,414.5C 287.965,411.13 284.632,408.13 281,405.5C 276.99,448.884 261.99,487.884 236,522.5C 219.88,542.979 199.38,557.146 174.5,565C 165.679,567.192 156.846,568.026 148,567.5C 147.5,566.5 147,565.5 146.5,564.5C 164.457,537.139 175.624,507.139 180,474.5C 181.102,437.451 183.102,400.451 186,363.5C 187.572,342.354 190.238,321.354 194,300.5C 202.552,263.884 220.052,232.384 246.5,206C 258.674,194.91 272.674,186.91 288.5,182C 294.452,180.67 300.452,180.337 306.5,181C 308.211,182.133 308.711,183.633 308,185.5C 294.07,214.554 286.403,245.221 285,277.5C 284.833,285 284.667,292.5 284.5,300C 284.316,310.9 284.982,321.733 286.5,332.5C 297.461,328.235 308.461,324.068 319.5,320C 345.467,304.738 368.301,285.571 388,262.5C 405.505,242.322 420.672,220.488 433.5,197C 419.538,195.18 406.538,190.68 394.5,183.5C 392.806,178.889 393.472,174.723 396.5,171C 399.554,168.806 402.888,167.139 406.5,166C 415.188,163.613 423.855,161.78 432.5,160.5 Z M 193.5,508.5 C 201.789,456.047 204.956,404.047 203,352.5C 206.191,301.827 223.525,256.827 255,217.5C 262.496,209.498 270.996,202.831 280.5,197.5C 249.171,224.351 228.004,258.351 217,299.5C 206.166,339.345 202.666,379.845 206.5,421C 206.055,450.608 201.722,479.774 193.5,508.5 Z M 424.5,246.5 C 420.52,253.783 416.02,260.783 411,267.5C 401.235,278.596 392.235,290.263 384,302.5C 376.796,311.371 368.629,319.205 359.5,326C 340.133,339.244 319.133,349.244 296.5,356C 290.594,357.873 284.594,358.873 278.5,359C 308.264,349.284 335.931,335.617 361.5,318C 369.303,311.198 376.803,304.031 384,296.5C 396.606,279.066 410.106,262.399 424.5,246.5 Z M 352.5,377.5 C 373.095,386.928 388.262,401.928 398,422.5C 410.325,449.317 411.659,476.651 402,504.5C 401.034,510.13 400.367,515.796 400,521.5C 398.785,507.983 399.785,494.649 403,481.5C 405.631,437.1 388.798,402.434 352.5,377.5 Z"/></g>
</svg>
